<?xml version="1.0" ?><!DOCTYPE svg  PUBLIC '-//W3C//DTD SVG 1.1//EN'  'http://www.w3.org/Graphics/SVG/1.1/DTD/svg11.dtd'><svg enable-background="new 0 0 24 24" height="24px" id="Layer_1" version="1.1" viewBox="0 0 24 24" width="24px" xml:space="preserve" xmlns="http://www.w3.org/2000/svg" xmlns:xlink="http://www.w3.org/1999/xlink"><path clip-rule="evenodd" d="M10.718,18.561l6.78,5.311C17.609,23.957,17.677,24,17.743,24  c0.188,0,0.244-0.127,0.244-0.338v-5.023c0-0.355,0.233-0.637,0.548-0.637L21,18c2.219,0,3-1.094,3-2s0-13,0-14s-0.748-2-3.014-2  H2.989C0.802,0,0,0.969,0,2s0,13.031,0,14s0.828,2,3,2h6C9,18,10.255,18.035,10.718,18.561z" fill-rule="evenodd"/></svg>