<svg height="24" viewBox="0 0 24 24" width="24" xmlns="http://www.w3.org/2000/svg"><path d="M12 0C5.373 0 0 5.373 0 12c0 6.628 5.373 12 12 12s12-5.372 12-12c0-6.627-5.373-12-12-12zm7.754 9.56l-8.607 8.608c-.176.177-.462.177-.637 0l-1.272-1.285c-.175-.176-.462-.464-.636-.642l-2.96-3.11c-.087-.088-.133-.21-.133-.328 0-.115.045-.227.132-.314l1.297-1.17c.087-.09.204-.133.32-.133.114 0 .228.046.315.134l2.936 2.994c.176.178.462.178.638 0l6.7-6.68c.175-.178.46-.178.635 0l1.272 1.284c.175.176.175.466 0 .643z"/></svg>
