<svg height="24" viewBox="0 0 24 24" width="24" xmlns="http://www.w3.org/2000/svg"><path d="M21.635 6.366c-.467-.772-1.043-1.528-1.748-2.229-.713-.708-1.482-1.288-2.269-1.754l1.382-1.383s2 0 3 1l1 3-1.365 1.366zm-11.635 11.634h-4v-4l.48-.48c.813.385 1.621.926 2.348 1.652.728.729 1.268 1.535 1.652 2.348l-.48.48zm10.48-10.48l-8.846 8.845c-.467-.771-1.043-1.529-1.748-2.229-.712-.709-1.482-1.288-2.269-1.754l8.863-8.862c.813.383 1.621.924 2.348 1.651.729.728 1.269 1.536 1.652 2.349zm-16.48-3.52v16h16v-7l3-3.038v11.038c0 1.105-.896 2-2 2h-18c-1.104 0-2-.895-2-2v-18c0-1.104.896-2 2-2h11.01l-3.001 3h-7.009z"/></svg>