<svg xmlns="http://www.w3.org/2000/svg" width="100" height="100" viewBox="0 0 100 100"><path d="M49.99 0C22.38 0 0 22.38 0 49.99c0 27.608 22.38 49.99 49.99 49.99s49.99-22.382 49.99-49.99C99.98 22.38 77.6 0 49.99 0zm5.31 72.97c0 4.047-3.118 7.165-7.334 7.165-4.217 0-7.336-3.118-7.336-7.166v-.17c0-4.048 3.12-7.168 7.336-7.168S55.3 68.752 55.3 72.8v.17zm14.76-35.503c0 10.71-7.42 15.096-16.61 16.95l-.254 3.06c-.34 2.192-2.11 4.132-4.555 4.132h-2.824c-2.446 0-4.217-1.855-4.553-4.132V50.2c-.422-2.782 2.486-4.723 5.187-5.06 7.335-.926 10.708-3.203 10.708-7.335v-.17c0-3.793-2.867-5.986-7.76-5.986-3.624 0-6.744 1.096-9.78 3.372-1.012.76-2.36 1.35-3.795 1.35-3.204 0-5.903-2.7-5.903-5.902 0-1.604.675-3.29 2.194-4.555 4.47-3.71 10.118-6.072 17.538-6.072 12.144 0 20.408 6.24 20.408 17.455v.17z"/></svg>