<svg height="24" width="24" xmlns="http://www.w3.org/2000/svg"><path d="M22.245 4.015c.313.313.313.826 0 1.14l-6.276 6.27c-.314.31-.314.825 0 1.14l6.272 6.27c.313.314.313.827 0 1.14l-2.285 2.278c-.314.312-.828.312-1.142 0l-6.27-6.27c-.314-.314-.83-.314-1.142 0l-6.276 6.266c-.313.312-.828.312-1.14 0l-2.283-2.28c-.313-.314-.313-.827 0-1.14l6.278-6.27c.313-.312.313-.826 0-1.14L1.71 5.147c-.315-.313-.315-.827 0-1.14L3.992 1.73c.315-.313.828-.313 1.142 0L11.405 8c.314.314.828.314 1.14 0l6.277-6.266c.312-.312.826-.312 1.14 0l2.283 2.28z"/></svg>
