<svg xmlns="http://www.w3.org/2000/svg" width="99.998" height="100.001" viewBox="0 0 99.998 100.001"><path d="M46.831 21.354l10.295-10.286 1.978-8.518c.261-1.113-.43-2.232-1.555-2.493-1.113-.267-2.232.429-2.487 1.548l-1.716 7.358-11.427 11.429-1.371 9.637c-.615.591-1.224 1.183-1.867 1.814l-7.883-7.23-9.826 6.923-7.77.864c-1.143.134-1.963 1.154-1.838 2.296.052.487.275.916.6 1.241.429.429 1.044.667 1.696.597l8.303-.922 8.24-5.491 4.494 5.769c-1.252 1.305-2.505 2.662-3.76 4.071l-11.127 1.039-11.249 11.625-6.764.923c-1.136.156-1.937 1.2-1.777 2.336.061.47.278.876.588 1.189.443.44 1.079.684 1.751.591l8.19-1.113 9.434-9.805 4.778.806c-7.564 10.315-12.519 22.017-6.68 32.269l41.537-41.534-13.55-13.552.763-3.381zM67.597 86.801l.864-7.775 6.929-9.822-7.236-7.88c.638-.644 1.224-1.259 1.815-1.873l9.643-1.368 11.423-11.429 7.364-1.711c1.113-.261 1.809-1.38 1.542-2.493-.255-1.125-1.38-1.815-2.493-1.554l-8.513 1.983-10.292 10.292-3.38.759-13.546-13.545-40.788 40.786c10.124 5.77 21.475 1.206 31.502-6.013l.821 4.859-9.8 9.434-1.119 8.188c-.093.672.151 1.311.595 1.751.31.313.716.527 1.188.592 1.134.156 2.18-.639 2.34-1.78l.919-6.762 11.623-11.248 1.038-11.15c1.408-1.247 2.766-2.493 4.064-3.734l5.781 4.488-5.497 8.239-.922 8.303c-.07.655.168 1.271.597 1.699.325.325.754.545 1.241.598 1.144.126 2.17-.697 2.297-1.834zM48.419 22.706l13.566 13.568 7.225-19.581c-6.761-1.369-14.508.713-20.791 6.013zM78.51 21.488c-1.844-1.85-4.048-3.148-6.413-4.024l-6.112 16.555 16.549-6.112c-.875-2.372-2.174-4.575-4.024-6.419zM83.305 30.789l-19.581 7.225 13.568 13.568c5.3-6.286 7.381-14.032 6.013-20.793z"/></svg>