<svg xmlns="http://www.w3.org/2000/svg" width="100" height="100" viewBox="0 0 100 100"><path d="M87.913 43.843c0-21.239-17.214-38.458-38.455-38.458-21.242 0-38.458 17.219-38.458 38.458 0 20.782 16.485 37.699 37.092 38.418 2.958 2.88 12.534 10.995 23.374 7.69 0 0 3.226-.883 1.506-3.521-1.088-1.669-3.257-5.437-4.747-9.021 11.744-6.58 19.688-19.147 19.688-33.566zm-30.914 12.877h-22.077c-2.255 0-4.087-2.299-4.087-5.136 0-2.827 1.832-5.122 4.087-5.122h22.077c2.257 0 4.087 2.294 4.087 5.122 0 2.837-1.83 5.136-4.087 5.136zm6.652-16.923h-27.688c-2.836 0-5.128-2.298-5.128-5.129 0-2.833 2.292-5.126 5.128-5.126h27.688c2.83 0 5.127 2.293 5.127 5.126 0 2.831-2.297 5.129-5.127 5.129z"/></svg>