<?xml version="1.0" ?><!DOCTYPE svg  PUBLIC '-//W3C//DTD SVG 1.1//EN'  'http://www.w3.org/Graphics/SVG/1.1/DTD/svg11.dtd'><svg enable-background="new 0 0 24 24" height="24px" id="Layer_1" version="1.1" viewBox="0 0 24 24" width="24px" xml:space="preserve" xmlns="http://www.w3.org/2000/svg" xmlns:xlink="http://www.w3.org/1999/xlink"><path clip-rule="evenodd" d="M22,20.998h-1c0,0-1,0-1-1V17.5c0-0.277-0.224-0.5-0.5-0.5S19,17.223,19,17.5  l-0.008,4.295c0,0.609-2.01,2.205-6.492,2.205s-6.492-1.596-6.492-2.205L6,17.5C6,17.223,5.776,17,5.5,17S5,17.223,5,17.5v2.498  c0,1-1,1-1,1H3c0,0-1,0-1-1V15.75c0-2.922,2.892-5.401,6.93-6.341c0,0,1.234,1.107,3.57,1.107s3.57-1.107,3.57-1.107  c4.038,0.94,6.93,3.419,6.93,6.341v4.248C23,20.998,22,20.998,22,20.998z M12.477,9c-2.485,0-4.5-2.015-4.5-4.5S9.991,0,12.477,0  s4.5,2.015,4.5,4.5S14.962,9,12.477,9z" fill-rule="evenodd"/></svg>