<svg height="24" width="24" xmlns="http://www.w3.org/2000/svg"><path clip-rule="evenodd" d="M22 20.998h-1s-1 0-1-1V17.5c0-.277-.224-.5-.5-.5s-.5.223-.5.5l-.008 4.295c0 .61-2.01 2.205-6.492 2.205s-6.492-1.596-6.492-2.205L6 17.5c0-.277-.224-.5-.5-.5s-.5.223-.5.5v2.498c0 1-1 1-1 1H3s-1 0-1-1V15.75c0-2.922 2.892-5.4 6.93-6.34 0 0 1.234 1.106 3.57 1.106l3.57-1.107c4.038.94 6.93 3.418 6.93 6.34v4.248c0 1-1 1-1 1zM12.477 9c-2.485 0-4.5-2.015-4.5-4.5S9.99 0 12.477 0s4.5 2.015 4.5 4.5-2.015 4.5-4.5 4.5z" fill-rule="evenodd"/></svg>