<svg height="500" width="500" xmlns="http://www.w3.org/2000/svg"><path clip-rule="evenodd" d="M36.992 416.569c0 20.078 16.262 36.344 36.34 36.344h118.111c20.079 0 36.343-16.266 36.343-36.344v-145.367c0-20.079-16.264-36.342-36.343-36.342h-58.328c-10.089 0-18.17-8.177-18.17-18.17 0-3.271.815-5.542.815-5.542 13.264-43.977 46.785-79.227 89.762-94.852l.18-.182c12.997-5.54 22.083-18.445 22.083-33.437 0-20.077-16.264-36.341-36.343-36.341-4.906 0-9.536.998-13.804 2.723l-1.644.64c-81.314 31.706-139.002 110.751-139.002 203.331v163.539zm236.223 0c0 20.078 16.262 36.344 36.341 36.344h118.112c20.078 0 36.34-16.266 36.34-36.344v-145.367c0-20.079-16.262-36.342-36.34-36.342h-58.33c-10.088 0-18.169-8.177-18.169-18.17 0-3.362.813-5.542.813-5.542 13.267-43.977 46.787-79.227 89.765-94.852l.18-.182c12.995-5.54 22.081-18.445 22.081-33.437 0-20.077-16.262-36.341-36.34-36.341-4.906 0-9.538.998-13.805 2.723l-1.644.64c-81.316 31.706-139.004 110.751-139.004 203.331v163.539z" fill="#010101" fill-rule="evenodd"/></svg>