<svg xmlns="http://www.w3.org/2000/svg" version="1" width="50" height="50" viewBox="0 0 50 50"><path d="M42.466 29.596L30.148 17.508C29.006 19.09 28 19.644 27 20.304v.005c0 1.353-.873 2.452-2.228 2.452-1.355 0-2.34-1.1-2.34-2.454 0-1.357 1.154-2.456 2.51-2.456.797 0 1.53.38 1.978.965.348-.376 1.774-1.9 2.267-2.488l-2.774-2.783c-.784-.785-2.053-.784-2.836 0L7.533 29.597c-.785.783-.784 2.055 0 2.84L23.58 48.48c.783.784 2.056.784 2.84 0l16.046-16.045c.783-.784.783-2.055 0-2.84zm-17.292-8.094c-.39 0-.744-.103-1.057-.306-3.095-2.01 2.235-10.41 2.853-11.36C28.975 6.75 33.495.914 36.255.914c.334 0 .637.086.898.256 2.505 1.627-1.4 9.087-3.815 12.803-2.256 3.473-5.747 7.53-8.164 7.53zm11.08-20.278c-2.435 0-6.73 5.25-9.023 8.78-2.027 3.124-5.254 9.428-2.942 10.93.262.17.56.257.888.257 2.452 0 6.122-4.642 7.903-7.385 2.63-4.055 6.02-11 3.904-12.375-.213-.138-.452-.206-.73-.206zm-11.08 18.563l-.13-.017-.037-.054c-.156-.23-.255-1.105.36-2.942.596-1.777 1.674-3.91 3.037-6.007 1.266-1.947 3.782-5.344 5.218-6.66 1.59-1.455 2.34-1.53 2.476-1.53l.13.018.037.054c.155.227.255 1.103-.36 2.94-.62 1.846-2.71 5.47-4 7.45-1.362 2.1-2.873 3.95-4.254 5.216-1.587 1.456-2.34 1.53-2.475 1.53zm10.86-16.892c-.296.045-1.05.384-2.203 1.443-1.297 1.19-3.72 4.373-5.165 6.6-1.35 2.075-2.415 4.183-3.003 5.936-.523 1.565-.486 2.352-.423 2.596.307-.05 1.057-.392 2.202-1.44 1.36-1.25 2.854-3.08 4.204-5.157 1.242-1.913 3.36-5.58 3.965-7.38.525-1.57.488-2.356.424-2.598z"/></svg>