<svg height="500" width="500" xmlns="http://www.w3.org/2000/svg"><path clip-rule="evenodd" d="M36.992 416.57c0 20.077 16.262 36.343 36.34 36.343h118.11c20.08 0 36.344-16.266 36.344-36.344V271.2c0-20.08-16.264-36.342-36.343-36.342h-58.328c-10.09 0-18.17-8.177-18.17-18.17 0-3.27.815-5.542.815-5.542 13.264-43.977 46.785-79.227 89.762-94.852l.18-.182c12.997-5.54 22.083-18.445 22.083-33.437 0-20.077-16.264-36.34-36.343-36.34-4.906 0-9.536.997-13.804 2.722l-1.644.64C94.68 81.404 36.992 160.45 36.992 253.03v163.54zm236.223 0c0 20.077 16.262 36.343 36.34 36.343H427.67c20.078 0 36.34-16.266 36.34-36.344V271.2c0-20.08-16.262-36.342-36.34-36.342h-58.33c-10.088 0-18.17-8.177-18.17-18.17 0-3.362.814-5.542.814-5.542 13.267-43.977 46.787-79.227 89.765-94.852l.18-.182c12.995-5.54 22.08-18.445 22.08-33.437 0-20.077-16.26-36.34-36.34-36.34-4.905 0-9.537.997-13.804 2.722l-1.644.64c-81.317 31.705-139.005 110.75-139.005 203.33v163.54z" fill="#010101" fill-rule="evenodd"/></svg>