<svg xmlns="http://www.w3.org/2000/svg" width="99.998" height="100.001"><path d="M46.83 21.354l10.296-10.286 1.978-8.518c.26-1.113-.43-2.232-1.555-2.493-1.114-.267-2.233.43-2.488 1.548l-1.716 7.358-11.427 11.43-1.372 9.636c-.615.59-1.224 1.182-1.867 1.813l-7.882-7.23-9.826 6.923-7.77.864c-1.143.134-1.963 1.154-1.838 2.296.052.487.275.916.6 1.24.43.43 1.044.668 1.696.598l8.303-.922 8.24-5.49 4.494 5.768c-1.252 1.305-2.505 2.662-3.76 4.07L19.81 41 8.56 52.625l-6.763.923C.66 53.704-.14 54.748.02 55.884c.06.47.278.876.588 1.19.443.44 1.08.683 1.75.59l8.19-1.113 9.435-9.804 4.778.806c-7.563 10.315-12.518 22.017-6.68 32.27L59.62 38.286l-13.55-13.552.763-3.38zM67.598 86.8l.864-7.774 6.93-9.822-7.236-7.88c.638-.644 1.224-1.26 1.815-1.873l9.642-1.367 11.423-11.43 7.364-1.71c1.112-.26 1.808-1.38 1.54-2.493-.254-1.125-1.38-1.815-2.492-1.554l-8.513 1.983-10.292 10.29-3.38.76-13.546-13.545L20.93 81.17c10.123 5.77 21.474 1.207 31.5-6.012l.822 4.86-9.8 9.433-1.12 8.19c-.092.67.152 1.31.596 1.75.31.313.716.527 1.188.592 1.134.156 2.18-.64 2.34-1.78l.92-6.762 11.622-11.248 1.038-11.15c1.408-1.247 2.766-2.493 4.064-3.734l5.78 4.488-5.496 8.24-.922 8.302c-.07.655.168 1.27.597 1.7.324.324.753.544 1.24.597 1.144.126 2.17-.697 2.297-1.834zM48.42 22.707l13.565 13.568 7.225-19.58c-6.76-1.37-14.508.712-20.79 6.012zm30.09-1.218c-1.844-1.85-4.048-3.148-6.413-4.024L65.985 34.02l16.55-6.113c-.876-2.372-2.175-4.575-4.025-6.42zm4.795 9.3l-19.58 7.226L77.29 51.582c5.3-6.286 7.38-14.032 6.013-20.793z"/></svg>