<svg height="1024" width="2856.857" xmlns="http://www.w3.org/2000/svg"><path d="M552.73 332.135H311.557c-6.205 0-11.25 5.045-11.25 11.297V461.32c0 6.25 5.045 11.27 11.25 11.27h94.11v146.543s-21.146 7.057-79.497 7.057c-68.914 0-165.156-25.244-165.156-236.795 0-211.642 100.197-239.49 194.307-239.49 81.466 0 116.515 14.303 138.87 21.24 7.01 2.203 13.404-4.83 13.404-11.105l26.95-113.91c0-2.912-1.042-6.417-4.263-8.785C521.187 30.952 465.866 0 326.17 0 165.133 0 0 68.487 0 397.757 0 726.98 189.05 776 348.38 776c131.884 0 212.022-56.314 212.022-56.314 3.268-1.8 3.6-6.395 3.6-8.48V343.433c-.047-6.205-5.115-11.297-11.272-11.297zm1219.65-304h-135.694c-6.252 0-11.27 5.043-11.27 11.295v262.393h-211.62V39.43c0-6.252-5.068-11.296-11.178-11.296H1266.78c-6.11 0-11.084 5.044-11.084 11.296v710.473c0 6.3 5.02 11.32 11.084 11.32h135.838c6.203 0 11.178-5.068 11.178-11.32V446.067h211.62l-.476 303.883c0 6.3 5.02 11.272 11.084 11.272h135.885c6.25 0 11.13-5.068 11.13-11.272l.473-710.52c.094-6.252-4.974-11.296-11.132-11.296zM714.95 44.236c-48.358 0-87.575 39.572-87.575 88.403 0 48.855 39.217 88.428 87.574 88.428s87.526-39.572 87.526-88.428c0-48.83-39.17-88.403-87.527-88.403zm77.91 227.89c0-6.206-5.02-11.345-11.13-11.345H646.32c-6.348 0-11.746 6.394-11.746 12.67V743.32c0 13.734 8.572 17.902 19.703 17.902h121.96c13.31 0 16.813-6.536 16.813-18.188-.094-25.197-.094-123.808-.094-142.942-.095-18.187-.095-327.966-.095-327.966zm1505.113-10.28h-134.7c-6.16 0-11.085 5.093-11.085 11.345v348.31s-34.244 25.197-82.934 25.197c-48.547 0-61.525-22.025-61.525-69.72V273.145c0-6.252-5.07-11.345-11.132-11.345h-136.643c-6.252 0-11.178 5.093-11.178 11.345v326.807c0 141.284 78.766 175.906 186.99 175.906 88.854 0 160.61-49.115 160.61-49.115s3.362 25.766 5.067 28.844c1.422 3.078 5.447 6.158 9.852 6.158h86.58c6.158 0 11.178-5.07 11.178-11.32l.38-477.28c-.284-6.206-5.305-11.297-11.46-11.297zm368.96-16.008c-76.54 0-128.593 34.147-128.593 34.147V39.43c0-6.252-5.068-11.296-11.13-11.296h-136.265c-6.11 0-11.13 5.044-11.13 11.296l-.38 710.52c0 6.3 5.068 11.273 11.225 11.273h94.87c4.214 0 7.388-2.18 9.804-5.968 2.37-3.837 5.73-32.775 5.73-32.775s55.557 52.763 161.035 52.763c123.806 0 194.757-62.804 194.757-281.906.002-218.82-113.386-247.498-189.925-247.498zm-53.142 400.385c-46.7-1.42-78.34-22.64-78.34-22.64v-225.07s31.308-19.206 69.673-22.593c48.547-4.31 95.438 10.326 95.438 126.13-.238 122.007-21.36 146.114-86.77 144.173zm-1428.665-2.558c-5.97 0-21.22 2.368-36.85 2.368-49.92 0-66.97-23.256-66.97-53.33v-199.85h101.925c6.252 0 11.178-5.045 11.178-11.344V272.03c.094-6.298-4.926-11.343-11.178-11.343h-101.926l-.143-134.535c0-5.092-2.698-7.625-8.57-7.625H933.86c-5.35 0-8.335 2.39-8.335 7.578V265.14s-69.576 16.79-74.266 18.188c-4.642 1.326-8.052 5.684-8.052 10.822v87.408c0 6.252 5.068 11.344 11.178 11.344h71.14v210.222c0 156.11 109.552 171.455 183.438 171.455 33.723 0 74.076-10.99 80.848-13.357 4.074-1.42 6.395-5.637 6.395-10.136l.047-96.1c0-6.3-5.256-11.415-11.13-11.32z"/></svg>