<svg height="24" viewBox="0 0 24 24" width="24" xmlns="http://www.w3.org/2000/svg"><path clip-rule="evenodd" d="M22 20.998h-1s-1 0-1-1v-2.498c0-.277-.224-.5-.5-.5s-.5.223-.5.5l-.008 4.295c0 .609-2.01 2.205-6.492 2.205s-6.492-1.596-6.492-2.205l-.008-4.295c0-.277-.224-.5-.5-.5s-.5.223-.5.5v2.498c0 1-1 1-1 1h-1s-1 0-1-1v-4.248c0-2.922 2.892-5.401 6.93-6.341 0 0 1.234 1.107 3.57 1.107l3.57-1.107c4.038.94 6.93 3.419 6.93 6.341v4.248c0 1-1 1-1 1zm-9.523-11.998c-2.485 0-4.5-2.015-4.5-4.5s2.014-4.5 4.5-4.5 4.5 2.015 4.5 4.5-2.015 4.5-4.5 4.5z" fill-rule="evenodd"/></svg>