<svg xmlns="http://www.w3.org/2000/svg" width="100" height="100"><path d="M87.913 43.843c0-21.24-17.214-38.458-38.455-38.458C28.216 5.385 11 22.605 11 43.843c0 20.782 16.485 37.7 37.092 38.418 2.958 2.88 12.534 10.996 23.374 7.69 0 0 3.226-.882 1.506-3.52-1.088-1.67-3.257-5.437-4.747-9.02C79.97 70.83 87.913 58.26 87.913 43.842zM57 56.72H34.92c-2.255 0-4.087-2.3-4.087-5.136 0-2.827 1.832-5.122 4.087-5.122H57c2.256 0 4.086 2.294 4.086 5.122 0 2.837-1.83 5.136-4.087 5.136zm6.65-16.923H35.964c-2.836 0-5.128-2.298-5.128-5.13s2.292-5.125 5.128-5.125H63.65c2.83 0 5.128 2.293 5.128 5.126 0 2.83-2.297 5.13-5.127 5.13z"/></svg>