<svg xmlns="http://www.w3.org/2000/svg" xmlns:xlink="http://www.w3.org/1999/xlink" width="100px" height="100px" viewBox="0 0 75 75" version="1.1">
  <g id="surface1">
    <path style=" stroke:none;fill-rule:nonzero;fill:rgb(0.392157%,0.392157%,0.392157%);fill-opacity:1;" d="M 55.015625 60.417969 C 54.328125 60.417969 53.640625 60.191406 53.066406 59.730469 C 51.738281 58.65625 51.53125 56.703125 52.605469 55.375 L 67.128906 37.40625 L 52.617188 19.640625 C 51.535156 18.3125 51.730469 16.363281 53.054688 15.28125 C 54.378906 14.199219 56.328125 14.394531 57.414062 15.71875 L 73.519531 35.4375 C 74.445312 36.574219 74.453125 38.203125 73.53125 39.34375 L 57.425781 59.265625 C 56.8125 60.023438 55.917969 60.417969 55.015625 60.417969 Z M 19.984375 60.417969 C 19.089844 60.417969 18.199219 60.03125 17.585938 59.277344 L 1.484375 39.5625 C 0.554688 38.425781 0.550781 36.796875 1.472656 35.65625 L 17.578125 15.734375 C 18.652344 14.402344 20.601562 14.195312 21.929688 15.273438 C 23.261719 16.347656 23.46875 18.296875 22.394531 19.625 L 7.871094 37.59375 L 22.382812 55.363281 C 23.46875 56.6875 23.269531 58.640625 21.945312 59.722656 C 21.367188 60.1875 20.675781 60.417969 19.984375 60.417969 Z M 19.984375 60.417969 "/>
    <path style=" stroke:none;fill-rule:nonzero;fill:rgb(0%,0%,0%);fill-opacity:1;" d="M 25.082031 63.742188 L 46.234375 8.578125 L 51.484375 8.578125 L 30.179688 63.742188 Z M 25.082031 63.742188 "/>
  </g>
</svg>