<svg height="1024" width="2856.857" xmlns="http://www.w3.org/2000/svg"><path d="M552.73 332.135h-241.173c-6.205 0-11.25 5.045-11.25 11.297v117.887c0 6.252 5.045 11.272 11.25 11.272h94.109v146.542s-21.145 7.057-79.496 7.057c-68.914 0-165.156-25.244-165.156-236.795 0-211.642 100.197-239.491 194.307-239.491 81.465 0 116.514 14.304 138.869 21.241 7.01 2.203 13.404-4.831 13.404-11.105l26.949-113.91c0-2.912-1.041-6.417-4.262-8.785-9.095-6.393-64.416-37.345-204.113-37.345-161.035 0-326.168 68.487-326.168 397.757 0 329.222 189.051 378.243 348.381 378.243 131.883 0 212.021-56.314 212.021-56.314 3.268-1.801 3.6-6.395 3.6-8.479v-367.775c-.047-6.205-5.115-11.297-11.272-11.297zm1219.651-304.001h-135.695c-6.252 0-11.271 5.044-11.271 11.296v262.393h-211.619v-262.393c0-6.252-5.068-11.296-11.178-11.296h-135.838c-6.111 0-11.084 5.044-11.084 11.296v710.473c0 6.299 5.021 11.32 11.084 11.32h135.838c6.203 0 11.178-5.068 11.178-11.32v-303.836h211.619l-.475 303.883c0 6.3 5.021 11.272 11.084 11.272h135.885c6.252 0 11.131-5.068 11.131-11.272l.473-710.521c.094-6.251-4.974-11.295-11.132-11.295zm-1057.432 16.103c-48.357 0-87.574 39.572-87.574 88.403 0 48.855 39.217 88.428 87.574 88.428s87.527-39.572 87.527-88.428c.001-48.83-39.169-88.403-87.527-88.403zm77.912 227.889c0-6.205-5.02-11.344-11.131-11.344h-135.41c-6.348 0-11.746 6.394-11.746 12.67v469.867c0 13.735 8.572 17.903 19.703 17.903h121.959c13.311 0 16.814-6.536 16.814-18.188-.094-25.197-.094-123.808-.094-142.942-.095-18.187-.095-327.966-.095-327.966zm1505.112-10.278h-134.701c-6.158 0-11.084 5.092-11.084 11.344v348.31s-34.244 25.197-82.934 25.197c-48.547 0-61.525-22.024-61.525-69.719v-303.835c0-6.252-5.068-11.345-11.131-11.345h-136.643c-6.252 0-11.178 5.093-11.178 11.345v326.807c0 141.284 78.766 175.906 186.99 175.906 88.854 0 160.609-49.115 160.609-49.115s3.363 25.766 5.068 28.844c1.422 3.078 5.447 6.158 9.852 6.158h86.58c6.158 0 11.178-5.069 11.178-11.321l.379-477.278c-.283-6.207-5.304-11.298-11.46-11.298zm368.959-16.009c-76.539 0-128.592 34.148-128.592 34.148v-240.557c0-6.252-5.068-11.296-11.131-11.296h-136.264c-6.109 0-11.131 5.044-11.131 11.296l-.379 710.521c0 6.3 5.068 11.272 11.225 11.272h94.869c4.215 0 7.389-2.179 9.805-5.968 2.369-3.837 5.73-32.775 5.73-32.775s55.557 52.763 161.035 52.763c123.807 0 194.758-62.804 194.758-281.906.002-218.819-113.386-247.498-189.925-247.498zm-53.141 400.386c-46.701-1.421-78.34-22.64-78.34-22.64v-225.07s31.307-19.206 69.672-22.593c48.547-4.31 95.438 10.326 95.438 126.13-.239 122.007-21.362 146.114-86.77 144.173zm-1428.666-2.558c-5.969 0-21.219 2.368-36.85 2.368-49.92 0-66.971-23.256-66.971-53.331v-199.85h101.926c6.252 0 11.178-5.044 11.178-11.343v-109.48c.094-6.299-4.926-11.344-11.178-11.344h-101.926l-.143-134.535c0-5.092-2.699-7.625-8.572-7.625h-138.728c-5.352 0-8.336 2.391-8.336 7.578v139.035s-69.576 16.79-74.266 18.188c-4.641 1.326-8.051 5.684-8.051 10.822v87.408c0 6.252 5.068 11.344 11.178 11.344h71.139v210.222c0 156.109 109.553 171.455 183.439 171.455 33.723 0 74.076-10.988 80.848-13.356 4.074-1.421 6.395-5.637 6.395-10.136l.047-96.101c0-6.298-5.256-11.414-11.129-11.319z"/></svg>